<?xml version="1.0" encoding="UTF-8"?>
<!DOCTYPE svg PUBLIC "-//W3C//DTD SVG 1.1//EN" "http://www.w3.org/Graphics/SVG/1.1/DTD/svg11.dtd">
<svg xmlns="http://www.w3.org/2000/svg" version="1.1" width="466px" height="466px" style="shape-rendering:geometricPrecision; text-rendering:geometricPrecision; image-rendering:optimizeQuality; fill-rule:evenodd; clip-rule:evenodd" xmlns:xlink="http://www.w3.org/1999/xlink">
<g><path style="opacity:1" fill="#a6a4a0" d="M 282.5,48.5 C 282.646,46.0576 281.813,45.3909 280,46.5C 274.249,45.6896 268.416,45.1896 262.5,45C 260.771,43.2111 260.104,41.0444 260.5,38.5C 262.667,36.4887 265.334,35.3221 268.5,35C 275.002,33.8045 281.168,34.6378 287,37.5C 288.083,42.2425 286.583,45.9092 282.5,48.5 Z"/></g>
<g><path style="opacity:1" fill="#7b7975" d="M 260.5,38.5 C 260.104,41.0444 260.771,43.2111 262.5,45C 268.416,45.1896 274.249,45.6896 280,46.5C 281.813,45.3909 282.646,46.0576 282.5,48.5C 276.883,55.5955 277.55,62.2622 284.5,68.5C 280.799,68.8674 278.799,70.8674 278.5,74.5C 277.209,74.7373 276.209,74.404 275.5,73.5C 278.152,72.7063 277.985,72.0396 275,71.5C 267.316,71.17 260.982,68.17 256,62.5C 255.028,64.3049 253.861,65.9716 252.5,67.5C 251.575,66.6431 250.908,65.6431 250.5,64.5C 252.144,62.5193 253.81,60.5193 255.5,58.5C 254.696,57.0589 254.029,55.5589 253.5,54C 254.218,50.5395 254.718,47.0395 255,43.5C 256.076,40.921 257.909,39.2543 260.5,38.5 Z"/></g>
<g><path style="opacity:1" fill="#a8a7a3" d="M 335.5,72.5 C 335.421,73.9305 335.754,75.2638 336.5,76.5C 341.915,81.1172 348.248,83.7839 355.5,84.5C 354.61,86.7819 354.444,89.1152 355,91.5C 358.562,102.683 365.395,111.017 375.5,116.5C 375.196,117.15 374.863,117.817 374.5,118.5C 368.876,119.989 363.209,121.323 357.5,122.5C 355.532,123.1 354.532,124.433 354.5,126.5C 349.575,129.296 344.242,130.13 338.5,129C 334.087,123.584 328.587,119.751 322,117.5C 318.323,118.922 314.823,120.756 311.5,123C 308.446,123.821 305.446,123.655 302.5,122.5C 300.547,114.203 295.547,109.536 287.5,108.5C 286.241,102.779 288.074,98.4458 293,95.5C 295.734,85.9162 292.234,81.4162 282.5,82C 281.167,83 279.833,84 278.5,85C 270.848,85.8542 263.848,88.3542 257.5,92.5C 257.193,91.1125 257.193,89.4458 257.5,87.5C 257.5,86.5 257.5,85.5 257.5,84.5C 259.735,84.7947 261.735,84.4614 263.5,83.5C 267.425,81.2053 270.425,78.0387 272.5,74C 273.448,73.5172 274.448,73.3505 275.5,73.5C 276.209,74.404 277.209,74.7373 278.5,74.5C 278.799,70.8674 280.799,68.8674 284.5,68.5C 286.068,69.4731 287.735,69.6397 289.5,69C 293.5,66.6667 297.5,64.3333 301.5,62C 308.367,60.9658 315.033,61.6325 321.5,64C 324.23,66.1301 326.23,68.7968 327.5,72C 330.146,72.4974 332.813,72.6641 335.5,72.5 Z"/></g>
<g><path style="opacity:1" fill="#797773" d="M 355.5,84.5 C 348.248,83.7839 341.915,81.1172 336.5,76.5C 335.754,75.2638 335.421,73.9305 335.5,72.5C 337.995,70.2857 340.995,69.1191 344.5,69C 343.446,67.6124 343.28,66.1124 344,64.5C 350.949,56.6085 359.449,51.1085 369.5,48C 371.833,47.3333 374.167,47.3333 376.5,48C 378.014,53.6674 376.347,58.334 371.5,62C 368.007,63.7906 364.341,65.124 360.5,66C 359.667,66.8333 358.833,67.6667 358,68.5C 357.85,74.081 357.017,79.4144 355.5,84.5 Z"/></g>
<g><path style="opacity:1" fill="#201d1a" d="M 275.5,73.5 C 274.448,73.3505 273.448,73.5172 272.5,74C 270.425,78.0387 267.425,81.2053 263.5,83.5C 261.143,83.3367 258.81,83.5034 256.5,84C 255.915,85.3024 255.249,86.469 254.5,87.5C 253.167,88.5 251.833,89.5 250.5,90.5C 250.5,89.1667 250.5,87.8333 250.5,86.5C 246.289,88.0778 241.956,88.5778 237.5,88C 236,86.5 234.5,85 233,83.5C 232.51,84.7932 232.343,86.1266 232.5,87.5C 230.048,84.2249 228.882,80.5583 229,76.5C 232.764,74.3681 236.264,71.8681 239.5,69C 242.377,67.8732 245.377,67.2065 248.5,67C 249.066,66.0053 249.733,65.172 250.5,64.5C 250.908,65.6431 251.575,66.6431 252.5,67.5C 253.861,65.9716 255.028,64.3049 256,62.5C 260.982,68.17 267.316,71.17 275,71.5C 277.985,72.0396 278.152,72.7063 275.5,73.5 Z"/></g>
<g><path style="opacity:0.235" fill="#676662" d="M 250.5,90.5 C 243.459,95.1564 237.459,94.1564 232.5,87.5C 232.343,86.1266 232.51,84.7932 233,83.5C 234.5,85 236,86.5 237.5,88C 241.956,88.5778 246.289,88.0778 250.5,86.5C 250.5,87.8333 250.5,89.1667 250.5,90.5 Z"/></g>
<g><path style="opacity:1" fill="#63605d" d="M 263.5,83.5 C 261.735,84.4614 259.735,84.7947 257.5,84.5C 257.5,85.5 257.5,86.5 257.5,87.5C 255.498,89.5255 255.164,91.8589 256.5,94.5C 257.086,94.2907 257.586,93.9574 258,93.5C 258.315,96.3715 258.815,99.2048 259.5,102C 259.2,104.024 258.367,104.524 257,103.5C 256.829,110.679 256.329,117.679 255.5,124.5C 255.666,115.827 255.5,107.16 255,98.5C 254.667,97.8333 254.333,97.1667 254,96.5C 252.882,99.8553 251.382,103.022 249.5,106C 247.843,106.725 246.843,106.225 246.5,104.5C 249.429,98.974 252.096,93.3073 254.5,87.5C 255.249,86.469 255.915,85.3024 256.5,84C 258.81,83.5034 261.143,83.3367 263.5,83.5 Z"/></g>
<g><path style="opacity:1" fill="#070604" d="M 255.5,124.5 C 254.192,129.738 253.526,135.072 253.5,140.5C 253.299,144.373 253.966,148.039 255.5,151.5C 257.422,149.997 258.588,147.997 259,145.5C 259.912,141.205 260.579,136.872 261,132.5C 265.283,128.095 269.45,123.595 273.5,119C 278.777,115.838 284.443,114.838 290.5,116C 292.038,117.932 293.205,120.099 294,122.5C 296.185,123.928 298.185,125.595 300,127.5C 300.667,131.833 300.667,136.167 300,140.5C 296.946,143.554 293.946,146.554 291,149.5C 287.052,154.381 288.052,157.714 294,159.5C 299.697,157.401 305.197,154.901 310.5,152C 318.317,151.614 325.65,149.614 332.5,146C 334.081,144.172 335.415,142.172 336.5,140C 341.833,139.667 347.167,139.333 352.5,139C 353,138.5 353.5,138 354,137.5C 354.499,133.848 354.665,130.182 354.5,126.5C 354.532,124.433 355.532,123.1 357.5,122.5C 363.209,121.323 368.876,119.989 374.5,118.5C 374.863,117.817 375.196,117.15 375.5,116.5C 383.12,120.787 389.12,126.787 393.5,134.5C 390.336,137.45 388.503,141.117 388,145.5C 383.2,152.15 376.7,155.483 368.5,155.5C 367.968,157.741 366.635,159.241 364.5,160C 350.433,160.526 336.433,161.526 322.5,163C 320.119,166.225 318.786,169.892 318.5,174C 317.303,175.52 315.803,176.687 314,177.5C 314.542,184.921 317.542,191.254 323,196.5C 325.186,201.605 327.52,206.605 330,211.5C 331.163,218.103 331.83,224.77 332,231.5C 333.185,233.87 334.351,236.203 335.5,238.5C 335.281,239.938 334.781,241.271 334,242.5C 330.306,245.029 327.14,248.029 324.5,251.5C 324.5,250.5 324.5,249.5 324.5,248.5C 323.448,248.351 322.448,248.517 321.5,249C 318.174,253.326 314.507,257.326 310.5,261C 303.134,263.584 296.968,267.751 292,273.5C 290.991,275.025 290.491,276.692 290.5,278.5C 289.506,279.999 289.506,281.666 290.5,283.5C 289.121,286.344 287.121,288.844 284.5,291C 262.823,302.058 240.156,310.224 216.5,315.5C 213.591,313.568 210.424,311.901 207,310.5C 206.666,308.153 206.833,305.819 207.5,303.5C 198.821,303.464 190.154,303.797 181.5,304.5C 174.434,305.542 168.934,303.209 165,297.5C 163.529,293.419 161.862,289.419 160,285.5C 159.044,284.106 157.711,283.439 156,283.5C 147.582,286.915 139.915,291.582 133,297.5C 130.893,301.381 129.059,305.381 127.5,309.5C 128.127,310.417 128.461,311.417 128.5,312.5C 116.915,318.982 104.582,321.482 91.5,320C 87.1333,317.445 84.6333,313.612 84,308.5C 83.0368,302.535 82.5368,296.535 82.5,290.5C 83.8802,286.563 83.7136,282.563 82,278.5C 77.9906,273.325 73.4906,268.658 68.5,264.5C 64.957,260.431 63.457,255.765 64,250.5C 65.9827,249.234 66.9827,247.568 67,245.5C 64.1508,244.106 61.1508,243.106 58,242.5C 54.2418,244.295 50.4084,245.961 46.5,247.5C 43.5693,226.257 45.7359,205.591 53,185.5C 53.66,183.676 54.8267,182.343 56.5,181.5C 57.1103,183.434 58.1103,185.101 59.5,186.5C 59.244,188.912 60.244,190.579 62.5,191.5C 73.6874,182.117 78.5207,170.117 77,155.5C 78.1096,153.963 79.6096,153.297 81.5,153.5C 87.3855,154.687 92.0522,152.854 95.5,148C 99.8532,147.755 104.187,147.755 108.5,148C 109.252,147.329 109.586,146.496 109.5,145.5C 111.857,143.933 114.524,142.933 117.5,142.5C 118.386,141.675 118.719,140.675 118.5,139.5C 121.765,139.082 124.765,137.915 127.5,136C 137.342,135.175 147.009,135.342 156.5,136.5C 154.396,136.201 152.396,136.534 150.5,137.5C 151.167,138.167 151.833,138.833 152.5,139.5C 145.244,143.762 138.577,148.762 132.5,154.5C 132.833,154.833 133.167,155.167 133.5,155.5C 142.328,150.92 150.995,146.087 159.5,141C 160.337,139.989 160.67,138.822 160.5,137.5C 160.611,136.883 160.944,136.383 161.5,136C 164.167,135.667 166.833,135.333 169.5,135C 172.329,132.173 175.663,130.173 179.5,129C 186.514,128.501 193.514,128.668 200.5,129.5C 200.285,131.179 200.952,132.179 202.5,132.5C 204.986,133.129 207.319,134.129 209.5,135.5C 210.5,135.333 211.5,135.167 212.5,135C 217.687,130.903 222.687,126.57 227.5,122C 226.552,121.517 225.552,121.351 224.5,121.5C 227.635,118.192 230.635,114.692 233.5,111C 238.118,109.301 242.451,107.134 246.5,104.5C 246.843,106.225 247.843,106.725 249.5,106C 251.382,103.022 252.882,99.8553 254,96.5C 254.333,97.1667 254.667,97.8333 255,98.5C 255.5,107.16 255.666,115.827 255.5,124.5 Z"/></g>
<g><path style="opacity:1" fill="#7d7a77" d="M 354.5,126.5 C 354.665,130.182 354.499,133.848 354,137.5C 353.5,138 353,138.5 352.5,139C 347.167,139.333 341.833,139.667 336.5,140C 335.415,142.172 334.081,144.172 332.5,146C 325.65,149.614 318.317,151.614 310.5,152C 305.197,154.901 299.697,157.401 294,159.5C 288.052,157.714 287.052,154.381 291,149.5C 293.946,146.554 296.946,143.554 300,140.5C 300.667,136.167 300.667,131.833 300,127.5C 298.185,125.595 296.185,123.928 294,122.5C 293.205,120.099 292.038,117.932 290.5,116C 284.443,114.838 278.777,115.838 273.5,119C 269.45,123.595 265.283,128.095 261,132.5C 260.579,136.872 259.912,141.205 259,145.5C 258.588,147.997 257.422,149.997 255.5,151.5C 253.966,148.039 253.299,144.373 253.5,140.5C 253.526,135.072 254.192,129.738 255.5,124.5C 256.329,117.679 256.829,110.679 257,103.5C 258.367,104.524 259.2,104.024 259.5,102C 258.815,99.2048 258.315,96.3715 258,93.5C 257.586,93.9574 257.086,94.2907 256.5,94.5C 255.164,91.8589 255.498,89.5255 257.5,87.5C 257.193,89.4458 257.193,91.1125 257.5,92.5C 263.848,88.3542 270.848,85.8542 278.5,85C 279.833,84 281.167,83 282.5,82C 292.234,81.4162 295.734,85.9162 293,95.5C 288.074,98.4458 286.241,102.779 287.5,108.5C 295.547,109.536 300.547,114.203 302.5,122.5C 305.446,123.655 308.446,123.821 311.5,123C 314.823,120.756 318.323,118.922 322,117.5C 328.587,119.751 334.087,123.584 338.5,129C 344.242,130.13 349.575,129.296 354.5,126.5 Z"/></g>
<g><path style="opacity:0.816" fill="#50504d" d="M 204.5,124.5 C 202.954,126.882 202.287,129.549 202.5,132.5C 200.952,132.179 200.285,131.179 200.5,129.5C 200.731,126.937 202.065,125.27 204.5,124.5 Z"/></g>
<g><path style="opacity:1" fill="#9e9d99" d="M 224.5,121.5 C 225.552,121.351 226.552,121.517 227.5,122C 222.687,126.57 217.687,130.903 212.5,135C 211.5,135.167 210.5,135.333 209.5,135.5C 207.319,134.129 204.986,133.129 202.5,132.5C 202.287,129.549 202.954,126.882 204.5,124.5C 207.374,124.451 210.208,124.784 213,125.5C 217.002,124.579 220.835,123.246 224.5,121.5 Z"/></g>
<g><path style="opacity:0.42" fill="#6a6a67" d="M 118.5,139.5 C 118.719,140.675 118.386,141.675 117.5,142.5C 114.524,142.933 111.857,143.933 109.5,145.5C 105.019,144.352 100.352,144.185 95.5,145C 93.3496,146.411 91.0163,147.245 88.5,147.5C 89.343,145.827 90.6763,144.66 92.5,144C 101.297,142.957 109.964,141.457 118.5,139.5 Z"/></g>
<g><path style="opacity:1" fill="#9c9b98" d="M 156.5,136.5 C 157.959,136.433 159.292,136.766 160.5,137.5C 160.67,138.822 160.337,139.989 159.5,141C 150.995,146.087 142.328,150.92 133.5,155.5C 133.167,155.167 132.833,154.833 132.5,154.5C 138.577,148.762 145.244,143.762 152.5,139.5C 151.833,138.833 151.167,138.167 150.5,137.5C 152.396,136.534 154.396,136.201 156.5,136.5 Z"/></g>
<g><path style="opacity:0.521" fill="#979692" d="M 109.5,145.5 C 109.586,146.496 109.252,147.329 108.5,148C 104.187,147.755 99.8532,147.755 95.5,148C 92.0522,152.854 87.3855,154.687 81.5,153.5C 83.631,152.686 85.9644,152.186 88.5,152C 87.737,151.056 86.737,150.556 85.5,150.5C 81.7804,151.12 78.1137,151.953 74.5,153C 70.9905,157.34 67.3238,161.507 63.5,165.5C 61.3984,172.342 60.0651,179.342 59.5,186.5C 58.1103,185.101 57.1103,183.434 56.5,181.5C 57.4677,176.904 58.3011,172.237 59,167.5C 62.9867,163.169 66.6533,158.502 70,153.5C 71.6374,151.19 73.804,149.69 76.5,149C 80.466,148.172 84.466,147.672 88.5,147.5C 91.0163,147.245 93.3496,146.411 95.5,145C 100.352,144.185 105.019,144.352 109.5,145.5 Z"/></g>
<g><path style="opacity:1" fill="#a5a49f" d="M 81.5,153.5 C 79.6096,153.297 78.1096,153.963 77,155.5C 78.5207,170.117 73.6874,182.117 62.5,191.5C 60.244,190.579 59.244,188.912 59.5,186.5C 60.0651,179.342 61.3984,172.342 63.5,165.5C 67.3238,161.507 70.9905,157.34 74.5,153C 78.1137,151.953 81.7804,151.12 85.5,150.5C 86.737,150.556 87.737,151.056 88.5,152C 85.9644,152.186 83.631,152.686 81.5,153.5 Z"/></g>
<g><path style="opacity:1" fill="#bfbcb7" d="M 143.5,166.5 C 155.098,166.593 160.598,172.26 160,183.5C 152.779,194.113 145.946,204.947 139.5,216C 135.292,218.456 130.959,220.622 126.5,222.5C 122.711,221.048 120.378,218.382 119.5,214.5C 120.5,214.5 121.5,214.5 122.5,214.5C 122.334,209.821 122.501,205.155 123,200.5C 125.941,195.228 129.274,190.228 133,185.5C 135.557,181.055 137.557,176.389 139,171.5C 140.707,169.963 142.207,168.296 143.5,166.5 Z"/></g>
<g><path style="opacity:1" fill="#bebbb6" d="M 229.5,165.5 C 232.32,165.248 234.986,165.748 237.5,167C 248.047,176.62 251.214,188.12 247,201.5C 246.097,202.701 244.931,203.535 243.5,204C 237.119,204.899 230.785,205.899 224.5,207C 221.396,210.54 219.063,214.54 217.5,219C 205.459,222.298 202.292,218.465 208,207.5C 215.432,199.404 222.099,190.737 228,181.5C 229.339,176.264 229.839,170.93 229.5,165.5 Z"/></g>
<g><path style="opacity:1" fill="#918f8a" d="M 82.5,290.5 C 81.1779,290.33 80.0113,290.663 79,291.5C 78.6667,295.167 78.3333,298.833 78,302.5C 77.0267,304.64 75.5267,306.307 73.5,307.5C 72.2134,317.845 72.2134,328.178 73.5,338.5C 72.9724,341.861 71.1391,344.194 68,345.5C 67.51,346.793 67.3433,348.127 67.5,349.5C 63.5499,348.192 59.8832,346.358 56.5,344C 55.2068,343.51 53.8734,343.343 52.5,343.5C 52.189,336.91 52.5223,330.41 53.5,324C 48.7008,319.938 46.8674,314.772 48,308.5C 50.1399,307.272 51.8066,305.605 53,303.5C 53.6667,293.5 53.6667,283.5 53,273.5C 51.7101,271.208 50.0435,269.208 48,267.5C 46.8626,260.88 46.3626,254.214 46.5,247.5C 50.4084,245.961 54.2418,244.295 58,242.5C 61.1508,243.106 64.1508,244.106 67,245.5C 66.9827,247.568 65.9827,249.234 64,250.5C 63.457,255.765 64.957,260.431 68.5,264.5C 73.4906,268.658 77.9906,273.325 82,278.5C 83.7136,282.563 83.8802,286.563 82.5,290.5 Z"/></g>
<g><path style="opacity:1" fill="#91918c" d="M 324.5,251.5 C 324.588,256.536 325.088,261.536 326,266.5C 328.925,268.714 331.759,271.047 334.5,273.5C 335.634,276.07 336.468,278.736 337,281.5C 340.333,284.833 343.667,288.167 347,291.5C 347.333,293.833 347.667,296.167 348,298.5C 355.489,305.163 362.655,312.163 369.5,319.5C 366.372,318.382 363.372,318.549 360.5,320C 357.827,323.091 354.66,325.591 351,327.5C 350.59,328.901 350.09,330.234 349.5,331.5C 348.373,330.878 347.373,330.045 346.5,329C 343.044,328.82 339.711,328.153 336.5,327C 328.795,318.963 321.461,310.63 314.5,302C 311.16,300.997 308.16,299.497 305.5,297.5C 305.804,296.85 306.137,296.183 306.5,295.5C 300.094,290.676 294.76,285.01 290.5,278.5C 290.491,276.692 290.991,275.025 292,273.5C 296.968,267.751 303.134,263.584 310.5,261C 314.507,257.326 318.174,253.326 321.5,249C 322.448,248.517 323.448,248.351 324.5,248.5C 324.5,249.5 324.5,250.5 324.5,251.5 Z"/></g>
<g><path style="opacity:0.533" fill="#6f6f6a" d="M 290.5,278.5 C 294.76,285.01 300.094,290.676 306.5,295.5C 306.137,296.183 305.804,296.85 305.5,297.5C 299.918,293.589 294.918,288.923 290.5,283.5C 289.506,281.666 289.506,279.999 290.5,278.5 Z"/></g>
<g><path style="opacity:1" fill="#92918b" d="M 216.5,315.5 C 215.307,315.97 214.64,316.97 214.5,318.5C 214.935,322.037 216.435,325.037 219,327.5C 219.49,328.793 219.657,330.127 219.5,331.5C 218.778,331.918 218.278,332.584 218,333.5C 215.687,328.875 213.354,324.208 211,319.5C 209.473,321.221 208.473,323.221 208,325.5C 206.304,333.431 205.637,341.431 206,349.5C 208.951,352.572 211.784,355.739 214.5,359C 213.934,359.995 213.267,360.828 212.5,361.5C 210.854,359.188 208.854,357.188 206.5,355.5C 205.614,359.476 204.948,363.476 204.5,367.5C 198.915,369.247 193.415,371.247 188,373.5C 187.818,379.897 187.152,386.23 186,392.5C 185.722,391.584 185.222,390.918 184.5,390.5C 184.666,384.824 184.499,379.157 184,373.5C 182.376,371.842 180.709,370.175 179,368.5C 177.894,363.231 177.227,357.897 177,352.5C 173.159,347.182 170.992,341.182 170.5,334.5C 168.578,332.997 167.412,330.997 167,328.5C 166.829,323.467 166.329,318.467 165.5,313.5C 153.217,312.52 140.884,312.187 128.5,312.5C 128.461,311.417 128.127,310.417 127.5,309.5C 129.059,305.381 130.893,301.381 133,297.5C 139.915,291.582 147.582,286.915 156,283.5C 157.711,283.439 159.044,284.106 160,285.5C 161.862,289.419 163.529,293.419 165,297.5C 168.934,303.209 174.434,305.542 181.5,304.5C 190.154,303.797 198.821,303.464 207.5,303.5C 206.833,305.819 206.666,308.153 207,310.5C 210.424,311.901 213.591,313.568 216.5,315.5 Z"/></g>
<g><path style="opacity:1" fill="#a7a6a1" d="M 369.5,319.5 C 376.28,320.777 381.613,324.277 385.5,330C 387.833,330.333 390.167,330.667 392.5,331C 395.192,333.557 397.525,336.391 399.5,339.5C 406.663,341.742 413.663,344.575 420.5,348C 422.624,350.408 422.457,352.908 420,355.5C 418.59,356.787 417.09,357.954 415.5,359C 405.141,360.005 395.141,362.005 385.5,365C 382.833,363 380.167,361 377.5,359C 368.272,349.604 358.938,340.437 349.5,331.5C 350.09,330.234 350.59,328.901 351,327.5C 354.66,325.591 357.827,323.091 360.5,320C 363.372,318.549 366.372,318.382 369.5,319.5 Z"/></g>
<g><path style="opacity:1" fill="#a7a6a1" d="M 219.5,331.5 C 222.35,336.201 225.85,340.535 230,344.5C 231.044,346.715 231.71,349.048 232,351.5C 237.405,356.782 242.905,361.949 248.5,367C 251.637,367.601 254.637,368.601 257.5,370C 259.714,373.12 259.714,376.12 257.5,379C 247.841,382.332 238.174,382.332 228.5,379C 221.91,374.247 216.577,368.413 212.5,361.5C 213.267,360.828 213.934,359.995 214.5,359C 211.784,355.739 208.951,352.572 206,349.5C 205.637,341.431 206.304,333.431 208,325.5C 208.473,323.221 209.473,321.221 211,319.5C 213.354,324.208 215.687,328.875 218,333.5C 218.278,332.584 218.778,331.918 219.5,331.5 Z"/></g>
<g><path style="opacity:1" fill="#a6a5a1" d="M 52.5,343.5 C 53.8734,343.343 55.2068,343.51 56.5,344C 59.8832,346.358 63.5499,348.192 67.5,349.5C 66.6432,355.675 67.8099,361.342 71,366.5C 71.3333,369.833 71.6667,373.167 72,376.5C 77.002,379.831 78.6687,384.497 77,390.5C 74.5484,393.821 71.3818,396.321 67.5,398C 63.5786,398.959 60.4119,397.792 58,394.5C 55.5345,391.872 53.7012,388.872 52.5,385.5C 53.3035,382.56 54.6369,379.893 56.5,377.5C 55.5328,375.37 54.3662,373.37 53,371.5C 51.8289,362.15 51.6622,352.817 52.5,343.5 Z"/></g>
<g><path style="opacity:1" fill="#a6a5a0" d="M 204.5,367.5 C 203.936,380.834 203.77,394.167 204,407.5C 205.177,409.176 206.677,410.509 208.5,411.5C 209.314,413.766 209.814,416.1 210,418.5C 215.208,422.529 219.041,427.529 221.5,433.5C 221.32,434.554 220.987,435.554 220.5,436.5C 217.373,438.099 214.04,439.266 210.5,440C 209.167,441.333 207.833,442.667 206.5,444C 201.148,444.322 195.814,444.822 190.5,445.5C 188.407,445.514 186.574,444.848 185,443.5C 183.72,434.267 183.053,424.934 183,415.5C 178.928,409.487 177.595,402.821 179,395.5C 180.319,393.513 182.152,392.346 184.5,392C 183.262,391.31 183.262,390.81 184.5,390.5C 185.222,390.918 185.722,391.584 186,392.5C 187.152,386.23 187.818,379.897 188,373.5C 193.415,371.247 198.915,369.247 204.5,367.5 Z"/></g>
</svg>
